# xmcd
#
# Track frame offsets:
#  150
#  3537
#  22107
#  38657
#  51995
#  69395
#  83482
#  98372
#  117907
#  133400
#  148427
#  167122
#  178632
#  192537
#
# Disc length: 2753 seconds
#
# Revision: 0
# Processed by: cddbd v1.5.1PL0 Copyright (c) Steve Scherf et al.
# Submitted via: Collectorz.com Music Collector 6.9
#
DISCID=c50abf0e
DTITLE=townes van zandt - Live At The Old Quarter, Houston, Texas [CD1)
DYEAR=2003
DGENRE=Country
TTITLE0=Announcement
TTITLE1=Pancho and Lefty
TTITLE2=Mr. Mudd and Mr. Gold
TTITLE3=Don't You Take It Too Bad
TTITLE4=Two Girls
TTITLE5=Fraternity Blues
TTITLE6=If I Needed You
TTITLE7=Brand New Companion
TTITLE8=White Freight Liner Blues
TTITLE9=To Live Is To Fly
TTITLE10=She Came And She Touched Me
TTITLE11=Talking Thunderbird Blues
TTITLE12=Rex's Blues
TTITLE13=Nine Pound Hammer
EXTD=
EXTT0=
EXTT1=
EXTT2=
EXTT3=
EXTT4=
EXTT5=
EXTT6=
EXTT7=
EXTT8=
EXTT9=
EXTT10=
EXTT11=
EXTT12=
EXTT13=
PLAYORDER=
